<svg width="80" height="72" viewBox="0 0 80 72" fill="none" xmlns="http://www.w3.org/2000/svg">
<path d="M13.0373 36.2507C10.8128 45.2572 44.5978 15.2567 38.5784 21.2408C55.3867 21.7076 37.9079 60.1777 48.5619 54.3304C61.7849 47.073 68.3113 18.4665 63 7.93296C59 0 38.2992 -0.800203 27.5432 6.07522C27.5432 6.07522 46.1546 6.02303 36.188 7.93293C26.4849 9.79234 15.899 24.6644 13.0373 36.2507Z" fill="url(#paint0_linear_120_26)"/>
<path d="M31.9263 50.9913C33.7148 50.7686 34.9464 50.7539 35.7625 50.8699C36.4543 50.0076 37.4545 48.9056 38.8545 47.514C45.1621 41.244 46.6665 32.8452 52.452 24.7991C57.1002 18.3349 64.3047 8.1349 71.4997 14.4999C84.4996 25.9999 72.334 51.878 72.3417 50.9913C72.5732 24.2713 69.9695 56.6353 43.8146 62.5006C24.1751 66.9049 53.5678 53.2871 36.8711 51.2442C38.5734 52.5442 31.8263 55.9439 35.5684 51.116C34.51 51.0345 33.3015 50.9913 31.9263 50.9913Z" fill="url(#paint1_linear_120_26)"/>
<path d="M17.8133 38.9942C16.3385 46.8262 7.93418 59.4317 3.07239 64.8499C17.4619 64.4571 37.0489 58.0351 45.8787 52.5156C56.8376 45.6651 61.8418 23.3947 60.5054 13.347C59.7821 7.90842 29.0677 -1.10967 13.692 21.7163C13.692 21.7163 40.9838 19.6073 32.555 21.7163C24.3492 23.7695 19.7106 28.9187 17.8133 38.9942Z" fill="url(#paint2_linear_120_26)"/>
<path d="M35.4083 45.8104C25.3105 57.0625 14.8967 62.5382 3.17658 64.6643C25.9664 63.4059 35.1472 60.3471 52.2108 52.9435C69.0993 45.6159 63.5756 39.7869 62.5141 58.333C62.4706 59.0928 84.5957 43.7074 65.0504 14.4247C62.3724 10.4126 51.684 20.2241 48.0171 25.9894C43.4529 33.1656 40.5029 40.1334 35.4083 45.8104Z" fill="url(#paint3_linear_120_26)"/>
<path d="M66.0103 6.63545C65.0871 8.53746 62.1635 12.6639 60.7508 14.1425C65.0253 13.8845 69.2798 12.2772 71.6229 10.3741C74.1405 8.3293 76.9013 5.17268 75.3166 3.16908C75.0137 2.7862 73.4125 1.33155 72.9305 0.97855C72.1631 0.416569 70.4788 0.121514 69.6102 0.741131C67.5737 2.19384 67.5013 3.56371 66.0103 6.63545Z" fill="url(#paint4_linear_120_26)"/>
<defs>
<linearGradient id="paint0_linear_120_26" x1="46.3907" y1="13.7144" x2="-29.096" y2="57.9064" gradientUnits="userSpaceOnUse">
<stop stop-color="#F6C3CE"/>
<stop offset="1" stop-color="#BD6571"/>
</linearGradient>
<linearGradient id="paint1_linear_120_26" x1="37.7583" y1="24.5009" x2="89.268" y2="29.6564" gradientUnits="userSpaceOnUse">
<stop stop-color="#EEB1BE"/>
<stop offset="1" stop-color="#BD6571"/>
</linearGradient>
<linearGradient id="paint2_linear_120_26" x1="44.602" y1="15.5342" x2="-8.8836" y2="56.7711" gradientUnits="userSpaceOnUse">
<stop offset="0.0384502" stop-color="#FFCCD6"/>
<stop offset="0.182685" stop-color="#F6C3CE"/>
<stop offset="1" stop-color="#BD6571"/>
</linearGradient>
<linearGradient id="paint3_linear_120_26" x1="32.0795" y1="34.3974" x2="88.1961" y2="7.43045" gradientUnits="userSpaceOnUse">
<stop stop-color="#EEB1BE"/>
<stop offset="1" stop-color="#BD6571"/>
</linearGradient>
<linearGradient id="paint4_linear_120_26" x1="59.6606" y1="10.3033" x2="101.508" y2="-1.9022" gradientUnits="userSpaceOnUse">
<stop stop-color="#F0A5B4"/>
<stop offset="1" stop-color="#BD6571"/>
</linearGradient>
</defs>
</svg>
